PathFileType	4	(X/Y/Z)	Patient4_TMGait_0pt4_03_right_21.trc.trc
DataRate	CameraRate	NumFrames	NumMarkers	Units	OrigDataRate	OrigDataStartFrame	OrigNumFrames
75.268817204301	75.268817204301	4	33	mm	75.268817204301	89	       141
Frame#	Time	Sacral			L.Shoulder			Chest			R.Shoulder			Neck			R.ASIS			L.ASIS			R.Thigh.Superior			R.Thigh.Lateral			R.Thigh.Inferior			R.Patella			L.Thigh.Superior			L.Thigh.Lateral			L.Thigh.Inferior			L.Patella			L.Shank.Superior			L.Shank.Lateral			L.Shank.Inferior			R.Shank.Superior			R.Shank.Lateral			R.Shank.Inferior			R.Heel			R.Midfoot.Superior			R.Midfoot.Lateral			R.Toe			L.Heel			L.Midfoot.Lateral			L.Midfoot.Superior			L.Toe			L.Elbow			L.Wrist			R.Elbow			R.Wrist			
		X1	Y1	Z1	X2	Y2	Z2	X3	Y3	Z3	X4	Y4	Z4	X5	Y5	Z5	X6	Y6	Z6	X7	Y7	Z7	X8	Y8	Z8	X9	Y9	Z9	X10	Y10	Z10	X11	Y11	Z11	X12	Y12	Z12	X13	Y13	Z13	X14	Y14	Z14	X15	Y15	Z15	X16	Y16	Z16	X17	Y17	Z17	X18	Y18	Z18	X19	Y19	Z19	X20	Y20	Z20	X21	Y21	Z21	X22	Y22	Z22	X23	Y23	Z23	X24	Y24	Z24	X25	Y25	Z25	X26	Y26	Z26	X27	Y27	Z27	X28	Y28	Z28	X29	Y29	Z29	X30	Y30	Z30	X31	Y31	Z31	X32	Y32	Z32	X33	Y33	Z33	

89	27.949142857143	901.286658834115	1007.662475061747	486.698393491751	1068.000567880050	1426.976106831113	281.555045465464	1183.597107128661	1363.784773858291	436.042208806988	1115.445958620301	1441.688605378467	614.938710577930	1064.309543736462	1494.340365219141	436.845171357170	1136.299996639343	938.465229807483	588.915650703231	1105.861396995908	961.228449832676	315.838282614916	1154.958496327253	727.879828414030	565.554453905090	1067.919961726579	625.692574157900	634.132096598702	1139.639728519276	562.253985536260	557.463288550412	1128.175455897478	459.873411597560	577.541803442607	1169.400751841087	757.544470872861	347.499247389264	1092.766927056088	635.310125064269	284.877167520840	1185.362491778456	564.425199449126	346.120170939285	1191.388416218822	492.661919107150	352.853042078475	1161.796610088300	419.682771298449	343.357170541096	1070.544468618497	308.413131884802	289.868425170025	1119.449722362731	193.402912984094	354.860857382133	1059.520621658457	389.478626785361	584.771140807003	947.337769563608	330.402886526682	645.205300373913	947.852031589315	221.988426706557	592.017060759261	759.181785282119	113.448443485719	563.577503445097	934.701199725351	105.447809171452	605.050466189528	831.554924020825	73.937521340824	637.485202370866	1029.365028507416	36.442649432711	633.866727294233	989.735198524895	39.323565215320	392.824388998049	1061.663334022498	36.784100264540	310.855635893868	1145.893809548674	97.062712440404	337.138572813350	1273.239480939990	43.452796254383	303.242972125837	1018.669061004644	1079.780147681324	159.445450589493	1110.344022124250	833.600391158930	135.858831741207	1086.396933503493	1097.882219492558	742.003011590088	1227.018600405587	888.326592800419	680.355469076136	
90	27.962428571429	900.799628128875	1007.603627549178	483.031516338291	1069.096250990304	1427.288370454381	278.676194313949	1183.578645206661	1364.000954743090	433.910576826204	1114.215750386476	1441.731447811155	612.402931044529	1064.267036382954	1494.444646154157	434.061082124943	1135.507442024057	938.676163760079	586.275074938250	1106.368911305962	961.407171970634	313.131341968599	1159.124118882695	729.454758014917	563.387100912955	1075.017749304618	625.853392792480	632.575034155029	1148.758509752980	563.392264099890	556.364952679635	1138.576697056218	459.802428804658	577.499657849658	1168.682111454364	756.769471782855	344.772887979196	1091.123030894514	635.076235955973	282.741745888374	1182.852944810617	563.653176688672	344.410637468501	1188.372237776551	491.927666440319	351.349343818951	1158.412610755185	418.976453044666	342.023987034944	1066.694654844562	307.969166827390	288.885309339179	1114.895463551809	193.040964400492	354.466790023722	1068.047847096135	390.047210899471	584.760937521252	953.781838584506	334.625746789874	644.815233112417	951.649935440589	225.873597366614	592.676280359807	759.879188241889	124.828846670341	564.186151422973	934.391703649773	107.337456773806	605.482380431401	829.938776427895	81.262070839610	637.881673962418	1024.436540920734	35.859828763714	633.864349385490	984.394074871945	39.322640099385	392.760679257637	1056.308095404423	36.705473685867	310.773857072150	1140.626485680023	96.907986378516	337.068949283238	1267.959299805787	43.061904641264	303.177982051722	1021.469998129081	1080.062231041211	155.780124771324	1116.423451796542	834.791772283452	134.921496805229	1082.407486468557	1098.192678095950	739.520723909097	1218.451082807493	883.205278778509	685.725967860090	
91	27.975714285714	900.175673314080	1007.476155469161	479.441023222941	1070.241909778043	1427.536776753321	275.909697776511	1183.518973310413	1364.073825599529	431.919557626564	1112.917952308389	1441.641190900528	609.986984364866	1064.249150403808	1494.471448045064	431.401194273825	1134.473966153230	938.817833866395	583.696703193630	1106.656892932196	961.481835298235	310.514599635357	1163.496931534474	731.351646989996	561.215491925292	1082.604811788373	626.235277168710	631.095159089282	1158.385023809997	564.936403872047	555.280789162016	1149.638412548308	460.214587113869	577.312289154084	1167.827477200408	756.043191667347	342.182002877765	1089.388629736673	634.858428824112	280.631068605551	1180.276550188232	562.910152080165	342.713520448940	1185.286038369486	491.206482520341	349.842485804525	1154.974378729923	418.275010628499	340.678286391681	1062.780153861412	307.534711156768	287.891738465559	1110.299981381900	192.698709065020	354.058948439259	1077.365877510224	390.955823039962	584.608016036273	961.189447751914	339.253396871612	644.431785736114	956.288034625636	230.285153616291	593.279983168533	761.734974521049	137.401641401158	564.750719845869	934.704942834104	109.841438049952	605.930843858474	829.089411803485	89.700399569283	638.264511221082	1019.566753121759	35.077384521534	633.903291321378	979.058609951623	39.314914927938	392.683747760060	1050.958252296810	36.629786826230	310.674666667853	1135.346174586723	96.777114015415	336.980471462569	1262.677056503057	42.740635040038	303.102998319947	1024.530570600742	1080.312941042904	152.097242356485	1122.802918211141	836.031751146596	134.140685165025	1078.228855091159	1098.381947929445	737.120093813686	1209.519295762670	878.260900706617	691.666283987527	
92	27.989000000000	899.427852015578	1007.273775369509	475.947018489205	1071.406047609249	1427.713283342307	273.273164266171	1183.401111503098	1364.008599420175	430.079866848012	1111.539964231361	1441.419655751803	607.705551379870	1064.248982474267	1494.421901487457	428.881991473720	1133.231640900130	938.911850949312	581.215132291297	1106.739749567200	961.440465371944	308.022993466585	1167.973956829719	733.589002912496	559.036474630397	1090.530590315546	626.892562037756	629.670521711010	1168.315891653703	566.938864554092	554.166953800232	1161.169020343866	461.156383565647	576.925031895824	1166.873005525370	755.359197212611	339.729749358074	1087.576505590739	634.635735965614	278.574447083469	1177.682060683768	562.184094537432	341.026471774402	1182.189436213172	490.490002047801	348.350133456354	1151.531461069918	417.570063771170	339.346418229743	1058.838970964623	307.114081001726	286.911603827180	1105.682449005751	192.366241815966	353.646500961569	1087.293426959486	392.252999627315	584.259834757858	969.420293325291	344.258246114069	644.021484508032	961.676022597539	235.199498276269	593.770006639019	764.766028866312	150.988632740968	565.215408082368	935.648239243873	113.037065168573	606.382612125794	829.061505780169	99.182799998516	638.590793488640	1014.816130154454	34.103716690866	633.982795705207	973.731622173108	39.301263437100	392.597256454067	1045.615543138967	36.559037963105	310.562399831459	1130.055812148548	96.670592807598	336.878626826918	1257.394143998678	42.484027954404	303.017404860866	1027.860573005615	1080.519644539605	148.427946811050	1129.471345297650	837.312060316369	133.543018361634	1073.921161430763	1098.465600328075	734.851953538099	1200.261869223308	873.571282947342	698.046983554588	
